<?xml version="1.0" standalone="no"?><!DOCTYPE svg PUBLIC "-//W3C//DTD SVG 1.1//EN" "http://www.w3.org/Graphics/SVG/1.1/DTD/svg11.dtd"><svg t="1630045268454" class="icon" viewBox="0 0 1056 1024" version="1.1" xmlns="http://www.w3.org/2000/svg" p-id="8936" xmlns:xlink="http://www.w3.org/1999/xlink" width="206.25" height="200"><defs><style type="text/css"></style></defs><path d="M1028.952312 262.833676l-73.593429-74.119097A94.620123 94.620123 0 0 0 889.124797 157.700205v-17.87269A139.301848 139.301848 0 0 0 749.822949 0H237.822949a139.827515 139.827515 0 0 0-139.827516 139.827515v46.258727H51.736706a46.784394 46.784394 0 1 0 0 93.043121h46.258727v186.086243H51.736706a46.784394 46.784394 0 0 0 0 93.568788h46.258727v186.086243H51.736706a46.784394 46.784394 0 1 0 0 93.043121h46.258727v46.258727a139.827515 139.827515 0 0 0 139.827516 139.827515h512a139.301848 139.301848 0 0 0 139.301848-139.827515v-352.722793l139.827515-139.827515a93.043121 93.043121 0 0 0 0-128.788501z m-232.870636 621.338809a46.258727 46.258727 0 0 1-46.258727 46.784394H237.822949a46.784394 46.784394 0 0 1-46.784395-46.784394v-46.258727a46.784394 46.784394 0 1 0 0-93.043121v-186.086243a46.784394 46.784394 0 1 0 0-93.568788V279.129363a46.784394 46.784394 0 1 0 0-93.043121v-46.258727a46.784394 46.784394 0 0 1 46.784395-46.784394h512a46.258727 46.258727 0 0 1 46.258727 46.784394v73.59343l-344.837783 345.363449A93.043121 93.043121 0 0 0 425.486193 624.492813v166.63655h166.63655a91.991786 91.991786 0 0 0 66.234087-27.334702l139.301848-139.301848z m-205.535935-186.086243h-73.593429v-73.593429l372.172485-372.698152 74.119096 74.119097z" p-id="8937" fill="#1296db"></path></svg>