<?xml version="1.0" standalone="no"?><!DOCTYPE svg PUBLIC "-//W3C//DTD SVG 1.1//EN" "http://www.w3.org/Graphics/SVG/1.1/DTD/svg11.dtd"><svg t="1596384206878" class="icon" viewBox="0 0 1024 1024" version="1.1" xmlns="http://www.w3.org/2000/svg" p-id="1481" xmlns:xlink="http://www.w3.org/1999/xlink" width="200" height="200"><defs><style type="text/css"></style></defs><path d="M800 448 601.6 422.4 512 236.8 422.4 422.4 224 448l147.2 140.8-32 198.4L512 697.6l179.2 96-32-198.4L800 448zM582.4 633.6 371.2 633.6 499.2 512 396.8 512l64-64 198.4 0L524.8 576 640 576 582.4 633.6zM512 128c211.2 0 384 172.8 384 384 0 211.2-172.8 384-384 384-211.2 0-384-172.8-384-384C128 300.8 300.8 128 512 128M512 64C262.4 64 64 268.8 64 512s198.4 448 448 448 448-198.4 448-448S761.6 64 512 64L512 64z" p-id="1482"></path></svg>